<svg xmlns="http://www.w3.org/2000/svg" xmlns:xlink="http://www.w3.org/1999/xlink" version="1.1" x="0px" y="0px" viewBox="0 0 100 125" enable-background="new 0 0 100 100" xml:space="preserve"><path fill-rule="evenodd" clip-rule="evenodd" d="M76.393,75.252l0.01-0.006c0,0-6.081-6.366-14.05-14.712  c12.862-13.019,34.587-50.28,30.596-53.657c-3.937-3.332-39.631,17.6-53.095,30.084c-8.271-8.667-14.67-15.374-14.665-15.376  c-5.006-5.437,0.872-5.982-9.716-17.055c-4.869,4.869-3.624,3.072-8.281,7.727C16.759,22.84,18.906,18.94,23.218,23.05  l14.897,15.604C25.514,51.562,2.962,88.43,7.562,92.264c4.539,3.782,39.33-17.403,53.047-30.049l13.856,14.512  c-0.008,0.006-0.011,0.01-0.017,0.016c5.008,5.438-0.872,5.979,9.717,17.054c4.869-4.868,3.622-3.072,8.279-7.729  C82.856,75.465,80.722,79.404,76.393,75.252z M73.445,28.06c2.153,1.688-9.424,20.143-16.439,26.87  c-3.838-4.02-7.869-8.244-11.73-12.288C53.066,36.304,71.372,26.431,73.445,28.06z M27.004,71.125  c-2.48-1.917,9.569-20.227,16.453-26.876l11.724,12.283C47.318,62.952,29.404,72.979,27.004,71.125z"/><text x="0" y="115" fill="#000000" font-size="5px" font-weight="bold" font-family="'Helvetica Neue', Helvetica, Arial-Unicode, Arial, Sans-serif">Created by Les Kleuver</text><text x="0" y="120" fill="#000000" font-size="5px" font-weight="bold" font-family="'Helvetica Neue', Helvetica, Arial-Unicode, Arial, Sans-serif">from the Noun Project</text></svg>